<svg width="100" height="100" viewBox="0 0 100 100" xmlns="http://www.w3.org/2000/svg">
  <!-- Microphone base -->
  <ellipse cx="50" cy="85" rx="15" ry="5" fill="#2D3748"/>
  
  <!-- Microphone stand -->
  <rect x="47" y="70" width="6" height="15" fill="#2D3748"/>
  
  <!-- Microphone body (suit) -->
  <path d="M 35 70 Q 35 30 50 30 Q 65 30 65 70 L 60 70 Q 60 65 55 65 L 45 65 Q 40 65 40 70 Z" fill="#2D3748"/>
  
  <!-- Shirt -->
  <path d="M 42 45 Q 50 42 58 45 L 58 65 Q 55 65 50 65 Q 45 65 42 65 Z" fill="white"/>
  
  <!-- Tie -->
  <path d="M 48 45 Q 50 47 52 45 L 51 60 Q 50 62 49 60 Z" fill="#2D3748"/>
  
  <!-- Suit buttons -->
  <circle cx="50" cy="50" r="1.5" fill="#2D3748"/>
  <circle cx="50" cy="55" r="1.5" fill="#2D3748"/>
  <circle cx="50" cy="60" r="1.5" fill="#2D3748"/>
  
  <!-- Microphone grille -->
  <ellipse cx="50" cy="35" rx="12" ry="15" fill="#2D3748"/>
  
  <!-- Grille lines -->
  <line x1="42" y1="25" x2="58" y2="25" stroke="white" stroke-width="1"/>
  <line x1="40" y1="28" x2="60" y2="28" stroke="white" stroke-width="1"/>
  <line x1="40" y1="31" x2="60" y2="31" stroke="white" stroke-width="1"/>
  <line x1="40" y1="34" x2="60" y2="34" stroke="white" stroke-width="1"/>
  <line x1="40" y1="37" x2="60" y2="37" stroke="white" stroke-width="1"/>
  <line x1="40" y1="40" x2="60" y2="40" stroke="white" stroke-width="1"/>
  <line x1="42" y1="43" x2="58" y2="43" stroke="white" stroke-width="1"/>
</svg>
