<?xml version="1.0" standalone="no"?>
<!DOCTYPE svg PUBLIC "-//W3C//DTD SVG 20010904//EN"
 "http://www.w3.org/TR/2001/REC-SVG-20010904/DTD/svg10.dtd">
<svg version="1.0" xmlns="http://www.w3.org/2000/svg"
 width="152.000000pt" height="300.000000pt" viewBox="0 0 152.000000 300.000000"
 preserveAspectRatio="xMidYMid meet">
<metadata>
Created by potrace 1.10, written by Peter Selinger 2001-2011
</metadata>
<g transform="translate(0.000000,300.000000) scale(0.100000,-0.100000)"
fill="#000000" stroke="none">
<path d="M715 2921 c-118 -29 -192 -117 -202 -241 l-6 -66 92 4 c78 4 95 2
111 -13 11 -10 20 -26 20 -35 0 -33 -22 -40 -122 -40 l-98 0 0 -30 0 -30 98 0
c100 0 122 -7 122 -40 0 -9 -9 -25 -20 -35 -17 -15 -32 -17 -110 -12 l-90 5 0
-29 0 -29 98 0 c104 0 122 -7 122 -47 0 -37 -33 -46 -132 -39 l-88 6 0 -43 c0
-107 56 -201 146 -247 42 -21 65 -25 160 -28 123 -4 170 5 229 43 72 47 112
122 117 220 l2 50 -89 0 c-50 0 -96 4 -102 8 -19 12 -16 64 3 71 9 3 55 6 104
6 l89 0 -3 28 -3 27 -86 -4 c-75 -3 -87 -1 -105 17 -25 25 -19 60 12 67 11 3
57 6 101 7 77 3 79 4 79 28 0 24 -2 25 -79 28 -44 1 -90 4 -101 7 -31 7 -37
42 -12 67 18 18 30 20 106 16 l86 -3 -2 50 c-5 84 -23 126 -77 182 -38 39 -63
55 -104 67 -57 17 -210 20 -266 7z m279 -52 c51 -26 83 -55 103 -93 24 -46 31
-79 22 -104 -8 -20 -15 -22 -74 -22 -61 0 -69 -3 -96 -30 -32 -32 -33 -50 -2
-98 13 -21 13 -26 -2 -42 -21 -24 -22 -75 -2 -98 21 -23 21 -31 1 -53 -23 -25
-21 -67 5 -92 17 -17 37 -23 94 -27 l72 -5 3 -37 c5 -65 -49 -144 -127 -183
-28 -14 -57 -16 -170 -13 l-137 3 -46 38 c-50 41 -79 91 -85 148 -5 43 7 49
100 49 48 0 62 4 82 25 30 30 33 75 5 100 -19 18 -19 18 0 45 24 34 25 63 4
95 -15 23 -15 27 0 50 23 35 20 69 -10 99 -24 23 -34 26 -99 26 -96 0 -107 22
-59 119 47 93 133 131 288 125 66 -3 100 -9 130 -25z"/>
<path d="M402 2065 c-68 -78 -69 -92 -22 -455 22 -173 61 -474 85 -669 25
-195 48 -372 51 -393 8 -47 45 -104 99 -151 22 -19 56 -49 75 -66 19 -17 50
-36 68 -42 31 -10 32 -12 32 -70 l0 -59 -213 0 c-195 0 -215 -2 -230 -18 -24
-26 -21 -68 5 -86 20 -14 84 -16 495 -16 460 0 474 1 493 20 24 24 25 48 4 78
-15 22 -20 22 -223 22 -114 0 -210 2 -212 4 -2 2 -2 29 -1 60 4 52 6 57 37 72
47 22 189 157 208 197 9 19 28 123 42 233 50 389 116 901 135 1050 18 139 19
155 4 203 -14 47 -74 131 -94 131 -4 0 -11 -11 -14 -25 -3 -13 -83 -203 -177
-422 -94 -219 -176 -415 -181 -435 -9 -34 -38 -55 -38 -28 0 9 -155 379 -196
468 -43 93 -174 408 -174 419 0 28 -21 20 -58 -22z m59 -82 c11 -27 27 -61 34
-78 7 -16 77 -178 154 -360 77 -181 151 -343 165 -358 22 -25 27 -27 46 -15
18 11 57 81 91 163 15 38 71 170 89 210 9 22 25 58 34 80 132 309 173 399 183
402 6 3 20 -8 30 -23 14 -22 18 -46 16 -109 -1 -44 -4 -93 -7 -109 -3 -16 -8
-48 -11 -70 -2 -23 -12 -90 -20 -151 -8 -60 -17 -130 -19 -155 -3 -25 -12 -99
-20 -164 -9 -66 -18 -138 -21 -160 -4 -37 -38 -305 -51 -401 -23 -180 -30
-194 -134 -282 -156 -131 -150 -125 -150 -177 0 -53 11 -80 37 -91 10 -4 103
-10 208 -12 104 -2 191 -6 193 -8 3 -2 2 -11 -1 -20 -6 -13 -60 -15 -459 -15
-249 0 -458 4 -465 8 -34 22 11 30 192 34 112 3 200 10 212 16 26 15 33 32 33
91 0 49 -18 74 -81 113 -36 23 -136 115 -160 149 -19 28 -41 128 -54 254 -3
33 -8 71 -10 85 -4 25 -25 190 -65 510 -12 91 -23 176 -25 190 -2 14 -9 67
-15 119 -6 51 -12 97 -15 100 -2 4 -6 54 -10 111 -6 95 -4 108 14 138 11 17
25 32 31 32 6 0 20 -21 31 -47z"/>
<path d="M646 1932 c-10 -9 -7 -190 3 -197 5 -3 40 11 77 32 95 52 137 52 232
2 41 -22 78 -37 83 -33 11 7 12 204 1 204 -5 0 -42 -17 -84 -39 -79 -39 -149
-49 -180 -24 -21 18 -126 62 -132 55z m90 -73 c19 -11 34 -22 34 -25 0 -8 -78
-43 -84 -37 -11 11 -6 83 5 83 7 0 27 -9 45 -21z m274 -19 c0 -29 -4 -40 -15
-40 -17 0 -75 27 -75 35 0 5 72 44 83 45 4 0 7 -18 7 -40z"/>
<path d="M811 1712 c-20 -38 31 -71 58 -38 9 11 10 20 1 35 -13 26 -46 27 -59
3z"/>
<path d="M811 1592 c-12 -23 4 -52 29 -52 26 0 45 36 29 56 -16 19 -46 18 -58
-4z"/>
<path d="M828 1492 c-22 -4 -24 -45 -4 -61 26 -22 63 10 50 43 -7 17 -23 24
-46 18z"/>
</g>
</svg>
